# xmcd
# 
# Track frame offsets:
#     150
#     23190
#     47608
#     64631
#     88031
#     109743
#     138290
#     154231
#     177090
#     198431
#     219750
#     236440
# 
# Disc length: 3297
# 
# Revision: 4
# Processed by: cddbd v1.5.2PL0 Copyright (c) Steve Scherf et al.
# Submitted via: fre:ac v1.0.17
# 
DISCID=970cdf0c
DTITLE=Puff Johnson - Miracle
DYEAR=1996
DGENRE=R&B
TTITLE0=Forever More
TTITLE1=Outside My Window
TTITLE2=All Over Your Face
TTITLE3=Yearning
TTITLE4=Love Between Me and You
TTITLE5=Some Kind Of Miracle
TTITLE6=All Because Of You
TTITLE7=God Sent You
TTITLE8=True Meaning Of Love
TTITLE9=Come Closer
TTITLE10=Please Help Me, I'm Falling (In Love With You)
TTITLE11=Hold On To His Hand
EXTD=YEAR: 1996
EXTT0=
EXTT1=
EXTT2=
EXTT3=
EXTT4=
EXTT5=
EXTT6=
EXTT7=
EXTT8=
EXTT9=
EXTT10=
EXTT11=
PLAYORDER=
